<svg xmlns="http://www.w3.org/2000/svg" width="71" height="71" viewBox="0 0 71 71" fill="none">
 <path d="M70 71C70.5523 71 71 70.5523 71 70L71 61C71 60.4477 70.5523 60 70 60C69.4477 60 69 60.4477 69 61L69 69L61 69C60.4477 69 60 69.4477 60 70C60 70.5523 60.4477 71 61 71L70 71ZM0.292893 1.70711L1.73039 3.14461L3.14461 1.73039L1.70711 0.292893L0.292893 1.70711ZM4.60539 6.01961L7.48039 8.89461L8.89461 7.48039L6.01961 4.60539L4.60539 6.01961ZM10.3554 11.7696L13.2304 14.6446L14.6446 13.2304L11.7696 10.3554L10.3554 11.7696ZM16.1054 17.5196L18.9804 20.3946L20.3946 18.9804L17.5196 16.1054L16.1054 17.5196ZM21.8554 23.2696L24.7304 26.1446L26.1446 24.7304L23.2696 21.8554L21.8554 23.2696ZM27.6054 29.0196L30.4804 31.8946L31.8946 30.4804L29.0196 27.6054L27.6054 29.0196ZM33.3554 34.7696L36.2304 37.6446L37.6446 36.2304L34.7696 33.3554L33.3554 34.7696ZM39.1054 40.5196L41.9804 43.3946L43.3946 41.9804L40.5196 39.1054L39.1054 40.5196ZM44.8554 46.2696L47.7304 49.1446L49.1446 47.7304L46.2696 44.8554L44.8554 46.2696ZM50.6054 52.0196L53.4804 54.8946L54.8946 53.4804L52.0196 50.6054L50.6054 52.0196ZM56.3554 57.7696L59.2304 60.6446L60.6446 59.2304L57.7696 56.3554L56.3554 57.7696ZM62.1054 63.5196L64.9804 66.3946L66.3946 64.9804L63.5196 62.1054L62.1054 63.5196ZM67.8554 69.2696L69.2929 70.7071L70.7071 69.2929L69.2696 67.8554L67.8554 69.2696ZM70 71C70.5523 71 71 70.5523 71 70L71 61C71 60.4477 70.5523 60 70 60C69.4477 60 69 60.4477 69 61L69 69L61 69C60.4477 69 60 69.4477 60 70C60 70.5523 60.4477 71 61 71L70 71ZM0.292893 1.70711L1.73039 3.14461L3.14461 1.73039L1.70711 0.292893L0.292893 1.70711ZM4.60539 6.01961L7.48039 8.89461L8.89461 7.48039L6.01961 4.60539L4.60539 6.01961ZM10.3554 11.7696L13.2304 14.6446L14.6446 13.2304L11.7696 10.3554L10.3554 11.7696ZM16.1054 17.5196L18.9804 20.3946L20.3946 18.9804L17.5196 16.1054L16.1054 17.5196ZM21.8554 23.2696L24.7304 26.1446L26.1446 24.7304L23.2696 21.8554L21.8554 23.2696ZM27.6054 29.0196L30.4804 31.8946L31.8946 30.4804L29.0196 27.6054L27.6054 29.0196ZM33.3554 34.7696L36.2304 37.6446L37.6446 36.2304L34.7696 33.3554L33.3554 34.7696ZM39.1054 40.5196L41.9804 43.3946L43.3946 41.9804L40.5196 39.1054L39.1054 40.5196ZM44.8554 46.2696L47.7304 49.1446L49.1446 47.7304L46.2696 44.8554L44.8554 46.2696ZM50.6054 52.0196L53.4804 54.8946L54.8946 53.4804L52.0196 50.6054L50.6054 52.0196ZM56.3554 57.7696L59.2304 60.6446L60.6446 59.2304L57.7696 56.3554L56.3554 57.7696ZM62.1054 63.5196L64.9804 66.3946L66.3946 64.9804L63.5196 62.1054L62.1054 63.5196ZM67.8554 69.2696L69.2929 70.7071L70.7071 69.2929L69.2696 67.8554L67.8554 69.2696Z" fill="white"></path>
 </svg>